# xmcd
#
# Track frame offsets:
#	150
#	17567
#	39835
#	60882
#	80130
#	99200
#	122457
#	145447
#	171467
#	194302
#	222095
#	252407
#
# Disc length: 3528 seconds
#
# Revision: 1
# Processed by: cddbd v1.5.1PL0 Copyright (c) Steve Scherf et al.
# Submitted via: CDex 1.50Beta5
#
DISCID=9c0dc60c
DTITLE=柿原朱美 - PEACE OF HEAVEN
DYEAR=1996
DGENRE=
TTITLE0=POWER OF LOVE
TTITLE1=1.2.3.I LOVE YOU
TTITLE2=いつもそばに
TTITLE3=この気持ちにキスしたい
TTITLE4=晴れのWEEKEND
TTITLE5=やさしい雨
TTITLE6=涙を輝きにして
TTITLE7=SNOW
TTITLE8=さよなら夏の日
TTITLE9=MERRY CHRISTMAS
TTITLE10=PEACE OF HEAVEN
TTITLE11=HEAVEN
EXTD=
EXTT0=
EXTT1=
EXTT2=
EXTT3=
EXTT4=
EXTT5=
EXTT6=
EXTT7=
EXTT8=
EXTT9=
EXTT10=
EXTT11=
PLAYORDER=
